<?xml version="1.0" encoding="utf-8"?>
<!-- Generator: Adobe Illustrator 16.0.0, SVG Export Plug-In . SVG Version: 6.00 Build 0)  -->
<!DOCTYPE svg PUBLIC "-//W3C//DTD SVG 1.1//EN" "http://www.w3.org/Graphics/SVG/1.1/DTD/svg11.dtd">
<svg version="1.1" id="Layer_1" xmlns="http://www.w3.org/2000/svg" xmlns:xlink="http://www.w3.org/1999/xlink" x="0px" y="0px"
	 width="1687.342px" height="1687.283px" viewBox="0 0 1687.342 1687.283" enable-background="new 0 0 1687.342 1687.283"
	 xml:space="preserve">
<g id="search">
	<path fill="#5A5A5A" d="M1642.112,1348.694l-291.565-291.562c-29.168-29.167-67.949-45.23-109.199-45.23
		c-36.868,0-71.739,12.862-99.56,36.41l-94.938-94.938c82.893-103.643,127.936-231.348,127.936-365.997
		c0.002-156.896-61.101-304.396-172.043-415.334C891.793,61.1,744.284,0,587.388,0s-304.4,61.098-415.343,172.036
		C61.1,282.975,0,430.479,0,587.37c0.002,156.895,61.101,304.396,172.045,415.336c110.942,110.94,258.45,172.039,415.347,172.039
		c134.659,0,262.374-45.04,366.017-127.935l94.938,94.938c-23.546,27.818-36.406,62.688-36.409,99.549
		c0,41.256,16.062,80.033,45.232,109.198l291.57,291.562c29.168,29.164,67.947,45.227,109.197,45.227
		c41.246,0,80.027-16.06,109.201-45.227l74.969-74.976c29.17-29.163,45.232-67.941,45.232-109.194
		C1687.342,1416.636,1671.279,1377.858,1642.112,1348.694z M265.481,909.27c-85.981-85.985-133.34-200.303-133.34-321.898
		c0-121.595,47.354-235.91,133.338-321.895c85.984-85.981,200.309-133.335,321.908-133.335
		c121.603,0,235.929,47.354,321.914,133.342c85.983,85.979,133.34,200.296,133.34,321.894c0,121.595-47.354,235.91-133.342,321.895
		c-85.983,85.982-200.306,133.335-321.907,133.335C465.79,1042.604,351.469,995.253,265.481,909.27z M1548.674,1473.645
		l-74.97,74.968c-5.681,5.684-12.315,6.53-15.767,6.53c-3.448,0-10.081-0.849-15.759-6.526l-291.577-291.562
		c-5.677-5.675-6.525-12.306-6.525-15.75c0-3.445,0.851-10.078,6.529-15.757l74.979-74.98c5.678-5.678,12.311-6.521,15.76-6.521
		c3.447,0,10.081,0.846,15.761,6.524l291.567,291.563c5.679,5.678,6.525,12.308,6.525,15.756
		C1555.199,1461.338,1554.354,1467.965,1548.674,1473.645z"/>
</g>
<g id="Layer_1_1_">
</g>
</svg>
